<svg width="48" height="13" viewBox="0 0 48 13" fill="none" xmlns="http://www.w3.org/2000/svg">
<path d="M7.54 8.517C7.54 6.736 5.98 6.307 4.524 5.943V2.914C5.252 2.953 6.032 3.2 6.734 3.642L7.163 2.602C6.474 2.134 5.499 1.848 4.524 1.809V0.339999H3.692V1.822C1.677 1.991 0.754 3.109 0.754 4.396C0.754 6.164 2.262 6.619 3.692 6.97V9.986C2.639 9.921 1.625 9.505 1.014 8.946L0.533 9.96C1.209 10.584 2.418 11.026 3.692 11.091V12.56H4.524V11.091C6.578 10.922 7.54 9.804 7.54 8.517ZM2.028 4.344C2.028 3.655 2.535 3.07 3.692 2.927V5.735C2.756 5.488 2.028 5.15 2.028 4.344ZM4.524 9.973V7.178C5.486 7.438 6.266 7.763 6.266 8.595C6.266 9.297 5.733 9.856 4.524 9.973ZM8.05127 1.9V3.031H10.1053V11H11.3923V1.9H8.05127ZM17.3088 5.475C16.1778 5.475 15.2158 5.891 14.6958 6.671C14.6828 6.554 14.6828 6.45 14.6828 6.346C14.6828 4.071 15.8658 2.914 17.7118 2.914C18.3618 2.914 18.9858 3.031 19.4538 3.343L19.9478 2.329C19.3628 1.965 18.5438 1.796 17.6858 1.796C15.1378 1.796 13.3828 3.46 13.3828 6.567C13.3828 9.466 14.7608 11.104 17.2048 11.104C19.0118 11.104 20.4288 9.986 20.4288 8.231C20.4288 6.554 19.1158 5.475 17.3088 5.475ZM17.1528 10.051C15.7488 10.051 14.9948 9.232 14.9948 8.296C14.9948 7.295 15.8528 6.528 17.0878 6.528C18.3618 6.528 19.1678 7.217 19.1678 8.283C19.1678 9.362 18.3358 10.051 17.1528 10.051ZM24.3572 1.796C22.5502 1.796 21.1462 2.914 21.1462 4.669C21.1462 6.346 22.4462 7.425 24.2532 7.425C25.3842 7.425 26.3462 7.022 26.8792 6.229V6.554C26.8792 8.829 25.7092 9.986 23.8632 9.986C23.2002 9.986 22.5892 9.869 22.1082 9.557L21.6142 10.571C22.1992 10.935 23.0182 11.104 23.8762 11.104C26.4242 11.104 28.1792 9.44 28.1792 6.333C28.1792 3.434 26.8012 1.796 24.3572 1.796ZM24.4742 6.372C23.2002 6.372 22.4072 5.683 22.4072 4.617C22.4072 3.538 23.2262 2.849 24.4092 2.849C25.8262 2.849 26.5802 3.668 26.5802 4.604C26.5802 5.605 25.7222 6.372 24.4742 6.372ZM30.1353 11.078C30.6033 11.078 30.9933 10.701 30.9933 10.181C30.9933 9.661 30.6033 9.297 30.1353 9.297C29.6543 9.297 29.2513 9.661 29.2513 10.181C29.2513 10.701 29.6543 11.078 30.1353 11.078ZM35.1736 1.796C33.3666 1.796 31.9626 2.914 31.9626 4.669C31.9626 6.346 33.2626 7.425 35.0696 7.425C36.2006 7.425 37.1626 7.022 37.6956 6.229V6.554C37.6956 8.829 36.5256 9.986 34.6796 9.986C34.0166 9.986 33.4056 9.869 32.9246 9.557L32.4306 10.571C33.0156 10.935 33.8346 11.104 34.6926 11.104C37.2406 11.104 38.9956 9.44 38.9956 6.333C38.9956 3.434 37.6176 1.796 35.1736 1.796ZM35.2906 6.372C34.0166 6.372 33.2236 5.683 33.2236 4.617C33.2236 3.538 34.0426 2.849 35.2256 2.849C36.6426 2.849 37.3966 3.668 37.3966 4.604C37.3966 5.605 36.5386 6.372 35.2906 6.372ZM43.1971 1.796C41.3901 1.796 39.9861 2.914 39.9861 4.669C39.9861 6.346 41.2861 7.425 43.0931 7.425C44.2241 7.425 45.1861 7.022 45.7191 6.229V6.554C45.7191 8.829 44.5491 9.986 42.7031 9.986C42.0401 9.986 41.4291 9.869 40.9481 9.557L40.4541 10.571C41.0391 10.935 41.8581 11.104 42.7161 11.104C45.2641 11.104 47.0191 9.44 47.0191 6.333C47.0191 3.434 45.6411 1.796 43.1971 1.796ZM43.3141 6.372C42.0401 6.372 41.2471 5.683 41.2471 4.617C41.2471 3.538 42.0661 2.849 43.2491 2.849C44.6661 2.849 45.4201 3.668 45.4201 4.604C45.4201 5.605 44.5621 6.372 43.3141 6.372Z" fill="#6C7289"/>
<path d="M0 6.866H47.6431V7.516H0V6.866Z" fill="#6C7289"/>
</svg>
